<?xml version="1.0" standalone="no"?>
<svg xmlns="http://www.w3.org/2000/svg" version="1.1" width="1110" height="1110">
	<!-- Created with https://api.qrserver.com (QR Code API, see goQR.me/api for information) -->
	<title>QR Code</title>
	<desc>https://evolution-api-trixie-sindicato.db8enk.easypanel.host/</desc>
	<rect style="fill:rgb(238, 217, 186);fill-opacity:1" x="0" y="0" width="1110" height="1110" />
	<g id="elements">
		<path style="fill:rgb(10, 51, 31)" d="M 60,60 l 30,0 0,30 -30,0 z M 90,60 l 30,0 0,30 -30,0 z M 120,60 l 30,0 0,30 -30,0 z M 150,60 l 30,0 0,30 -30,0 z M 180,60 l 30,0 0,30 -30,0 z M 210,60 l 30,0 0,30 -30,0 z M 240,60 l 30,0 0,30 -30,0 z M 360,60 l 30,0 0,30 -30,0 z M 420,60 l 30,0 0,30 -30,0 z M 480,60 l 30,0 0,30 -30,0 z M 540,60 l 30,0 0,30 -30,0 z M 570,60 l 30,0 0,30 -30,0 z M 600,60 l 30,0 0,30 -30,0 z M 630,60 l 30,0 0,30 -30,0 z M 660,60 l 30,0 0,30 -30,0 z M 690,60 l 30,0 0,30 -30,0 z M 750,60 l 30,0 0,30 -30,0 z M 840,60 l 30,0 0,30 -30,0 z M 870,60 l 30,0 0,30 -30,0 z M 900,60 l 30,0 0,30 -30,0 z M 930,60 l 30,0 0,30 -30,0 z M 960,60 l 30,0 0,30 -30,0 z M 990,60 l 30,0 0,30 -30,0 z M 1020,60 l 30,0 0,30 -30,0 z M 60,90 l 30,0 0,30 -30,0 z M 240,90 l 30,0 0,30 -30,0 z M 300,90 l 30,0 0,30 -30,0 z M 360,90 l 30,0 0,30 -30,0 z M 480,90 l 30,0 0,30 -30,0 z M 510,90 l 30,0 0,30 -30,0 z M 540,90 l 30,0 0,30 -30,0 z M 570,90 l 30,0 0,30 -30,0 z M 660,90 l 30,0 0,30 -30,0 z M 690,90 l 30,0 0,30 -30,0 z M 720,90 l 30,0 0,30 -30,0 z M 840,90 l 30,0 0,30 -30,0 z M 1020,90 l 30,0 0,30 -30,0 z M 60,120 l 30,0 0,30 -30,0 z M 120,120 l 30,0 0,30 -30,0 z M 150,120 l 30,0 0,30 -30,0 z M 180,120 l 30,0 0,30 -30,0 z M 240,120 l 30,0 0,30 -30,0 z M 420,120 l 30,0 0,30 -30,0 z M 600,120 l 30,0 0,30 -30,0 z M 660,120 l 30,0 0,30 -30,0 z M 690,120 l 30,0 0,30 -30,0 z M 720,120 l 30,0 0,30 -30,0 z M 780,120 l 30,0 0,30 -30,0 z M 840,120 l 30,0 0,30 -30,0 z M 900,120 l 30,0 0,30 -30,0 z M 930,120 l 30,0 0,30 -30,0 z M 960,120 l 30,0 0,30 -30,0 z M 1020,120 l 30,0 0,30 -30,0 z M 60,150 l 30,0 0,30 -30,0 z M 120,150 l 30,0 0,30 -30,0 z M 150,150 l 30,0 0,30 -30,0 z M 180,150 l 30,0 0,30 -30,0 z M 240,150 l 30,0 0,30 -30,0 z M 300,150 l 30,0 0,30 -30,0 z M 330,150 l 30,0 0,30 -30,0 z M 360,150 l 30,0 0,30 -30,0 z M 420,150 l 30,0 0,30 -30,0 z M 450,150 l 30,0 0,30 -30,0 z M 510,150 l 30,0 0,30 -30,0 z M 540,150 l 30,0 0,30 -30,0 z M 570,150 l 30,0 0,30 -30,0 z M 750,150 l 30,0 0,30 -30,0 z M 780,150 l 30,0 0,30 -30,0 z M 840,150 l 30,0 0,30 -30,0 z M 900,150 l 30,0 0,30 -30,0 z M 930,150 l 30,0 0,30 -30,0 z M 960,150 l 30,0 0,30 -30,0 z M 1020,150 l 30,0 0,30 -30,0 z M 60,180 l 30,0 0,30 -30,0 z M 120,180 l 30,0 0,30 -30,0 z M 150,180 l 30,0 0,30 -30,0 z M 180,180 l 30,0 0,30 -30,0 z M 240,180 l 30,0 0,30 -30,0 z M 330,180 l 30,0 0,30 -30,0 z M 450,180 l 30,0 0,30 -30,0 z M 540,180 l 30,0 0,30 -30,0 z M 570,180 l 30,0 0,30 -30,0 z M 600,180 l 30,0 0,30 -30,0 z M 630,180 l 30,0 0,30 -30,0 z M 660,180 l 30,0 0,30 -30,0 z M 750,180 l 30,0 0,30 -30,0 z M 840,180 l 30,0 0,30 -30,0 z M 900,180 l 30,0 0,30 -30,0 z M 930,180 l 30,0 0,30 -30,0 z M 960,180 l 30,0 0,30 -30,0 z M 1020,180 l 30,0 0,30 -30,0 z M 60,210 l 30,0 0,30 -30,0 z M 240,210 l 30,0 0,30 -30,0 z M 300,210 l 30,0 0,30 -30,0 z M 330,210 l 30,0 0,30 -30,0 z M 390,210 l 30,0 0,30 -30,0 z M 420,210 l 30,0 0,30 -30,0 z M 450,210 l 30,0 0,30 -30,0 z M 480,210 l 30,0 0,30 -30,0 z M 510,210 l 30,0 0,30 -30,0 z M 540,210 l 30,0 0,30 -30,0 z M 570,210 l 30,0 0,30 -30,0 z M 600,210 l 30,0 0,30 -30,0 z M 690,210 l 30,0 0,30 -30,0 z M 720,210 l 30,0 0,30 -30,0 z M 780,210 l 30,0 0,30 -30,0 z M 840,210 l 30,0 0,30 -30,0 z M 1020,210 l 30,0 0,30 -30,0 z M 60,240 l 30,0 0,30 -30,0 z M 90,240 l 30,0 0,30 -30,0 z M 120,240 l 30,0 0,30 -30,0 z M 150,240 l 30,0 0,30 -30,0 z M 180,240 l 30,0 0,30 -30,0 z M 210,240 l 30,0 0,30 -30,0 z M 240,240 l 30,0 0,30 -30,0 z M 300,240 l 30,0 0,30 -30,0 z M 360,240 l 30,0 0,30 -30,0 z M 420,240 l 30,0 0,30 -30,0 z M 480,240 l 30,0 0,30 -30,0 z M 540,240 l 30,0 0,30 -30,0 z M 600,240 l 30,0 0,30 -30,0 z M 660,240 l 30,0 0,30 -30,0 z M 720,240 l 30,0 0,30 -30,0 z M 780,240 l 30,0 0,30 -30,0 z M 840,240 l 30,0 0,30 -30,0 z M 870,240 l 30,0 0,30 -30,0 z M 900,240 l 30,0 0,30 -30,0 z M 930,240 l 30,0 0,30 -30,0 z M 960,240 l 30,0 0,30 -30,0 z M 990,240 l 30,0 0,30 -30,0 z M 1020,240 l 30,0 0,30 -30,0 z M 330,270 l 30,0 0,30 -30,0 z M 360,270 l 30,0 0,30 -30,0 z M 390,270 l 30,0 0,30 -30,0 z M 480,270 l 30,0 0,30 -30,0 z M 540,270 l 30,0 0,30 -30,0 z M 690,270 l 30,0 0,30 -30,0 z M 720,270 l 30,0 0,30 -30,0 z M 780,270 l 30,0 0,30 -30,0 z M 60,300 l 30,0 0,30 -30,0 z M 90,300 l 30,0 0,30 -30,0 z M 120,300 l 30,0 0,30 -30,0 z M 150,300 l 30,0 0,30 -30,0 z M 180,300 l 30,0 0,30 -30,0 z M 240,300 l 30,0 0,30 -30,0 z M 270,300 l 30,0 0,30 -30,0 z M 300,300 l 30,0 0,30 -30,0 z M 330,300 l 30,0 0,30 -30,0 z M 390,300 l 30,0 0,30 -30,0 z M 570,300 l 30,0 0,30 -30,0 z M 600,300 l 30,0 0,30 -30,0 z M 630,300 l 30,0 0,30 -30,0 z M 660,300 l 30,0 0,30 -30,0 z M 720,300 l 30,0 0,30 -30,0 z M 750,300 l 30,0 0,30 -30,0 z M 810,300 l 30,0 0,30 -30,0 z M 870,300 l 30,0 0,30 -30,0 z M 930,300 l 30,0 0,30 -30,0 z M 990,300 l 30,0 0,30 -30,0 z M 60,330 l 30,0 0,30 -30,0 z M 90,330 l 30,0 0,30 -30,0 z M 120,330 l 30,0 0,30 -30,0 z M 150,330 l 30,0 0,30 -30,0 z M 180,330 l 30,0 0,30 -30,0 z M 300,330 l 30,0 0,30 -30,0 z M 360,330 l 30,0 0,30 -30,0 z M 420,330 l 30,0 0,30 -30,0 z M 450,330 l 30,0 0,30 -30,0 z M 540,330 l 30,0 0,30 -30,0 z M 570,330 l 30,0 0,30 -30,0 z M 600,330 l 30,0 0,30 -30,0 z M 630,330 l 30,0 0,30 -30,0 z M 690,330 l 30,0 0,30 -30,0 z M 720,330 l 30,0 0,30 -30,0 z M 750,330 l 30,0 0,30 -30,0 z M 840,330 l 30,0 0,30 -30,0 z M 960,330 l 30,0 0,30 -30,0 z M 990,330 l 30,0 0,30 -30,0 z M 1020,330 l 30,0 0,30 -30,0 z M 90,360 l 30,0 0,30 -30,0 z M 120,360 l 30,0 0,30 -30,0 z M 240,360 l 30,0 0,30 -30,0 z M 270,360 l 30,0 0,30 -30,0 z M 300,360 l 30,0 0,30 -30,0 z M 360,360 l 30,0 0,30 -30,0 z M 450,360 l 30,0 0,30 -30,0 z M 480,360 l 30,0 0,30 -30,0 z M 510,360 l 30,0 0,30 -30,0 z M 570,360 l 30,0 0,30 -30,0 z M 810,360 l 30,0 0,30 -30,0 z M 840,360 l 30,0 0,30 -30,0 z M 930,360 l 30,0 0,30 -30,0 z M 990,360 l 30,0 0,30 -30,0 z M 60,390 l 30,0 0,30 -30,0 z M 90,390 l 30,0 0,30 -30,0 z M 120,390 l 30,0 0,30 -30,0 z M 180,390 l 30,0 0,30 -30,0 z M 270,390 l 30,0 0,30 -30,0 z M 420,390 l 30,0 0,30 -30,0 z M 450,390 l 30,0 0,30 -30,0 z M 510,390 l 30,0 0,30 -30,0 z M 600,390 l 30,0 0,30 -30,0 z M 630,390 l 30,0 0,30 -30,0 z M 690,390 l 30,0 0,30 -30,0 z M 720,390 l 30,0 0,30 -30,0 z M 780,390 l 30,0 0,30 -30,0 z M 810,390 l 30,0 0,30 -30,0 z M 840,390 l 30,0 0,30 -30,0 z M 870,390 l 30,0 0,30 -30,0 z M 900,390 l 30,0 0,30 -30,0 z M 960,390 l 30,0 0,30 -30,0 z M 90,420 l 30,0 0,30 -30,0 z M 120,420 l 30,0 0,30 -30,0 z M 150,420 l 30,0 0,30 -30,0 z M 240,420 l 30,0 0,30 -30,0 z M 270,420 l 30,0 0,30 -30,0 z M 300,420 l 30,0 0,30 -30,0 z M 330,420 l 30,0 0,30 -30,0 z M 360,420 l 30,0 0,30 -30,0 z M 420,420 l 30,0 0,30 -30,0 z M 480,420 l 30,0 0,30 -30,0 z M 570,420 l 30,0 0,30 -30,0 z M 720,420 l 30,0 0,30 -30,0 z M 750,420 l 30,0 0,30 -30,0 z M 780,420 l 30,0 0,30 -30,0 z M 810,420 l 30,0 0,30 -30,0 z M 870,420 l 30,0 0,30 -30,0 z M 900,420 l 30,0 0,30 -30,0 z M 930,420 l 30,0 0,30 -30,0 z M 90,450 l 30,0 0,30 -30,0 z M 210,450 l 30,0 0,30 -30,0 z M 330,450 l 30,0 0,30 -30,0 z M 540,450 l 30,0 0,30 -30,0 z M 600,450 l 30,0 0,30 -30,0 z M 630,450 l 30,0 0,30 -30,0 z M 660,450 l 30,0 0,30 -30,0 z M 750,450 l 30,0 0,30 -30,0 z M 840,450 l 30,0 0,30 -30,0 z M 990,450 l 30,0 0,30 -30,0 z M 1020,450 l 30,0 0,30 -30,0 z M 120,480 l 30,0 0,30 -30,0 z M 150,480 l 30,0 0,30 -30,0 z M 240,480 l 30,0 0,30 -30,0 z M 270,480 l 30,0 0,30 -30,0 z M 300,480 l 30,0 0,30 -30,0 z M 330,480 l 30,0 0,30 -30,0 z M 360,480 l 30,0 0,30 -30,0 z M 390,480 l 30,0 0,30 -30,0 z M 420,480 l 30,0 0,30 -30,0 z M 510,480 l 30,0 0,30 -30,0 z M 690,480 l 30,0 0,30 -30,0 z M 780,480 l 30,0 0,30 -30,0 z M 810,480 l 30,0 0,30 -30,0 z M 840,480 l 30,0 0,30 -30,0 z M 870,480 l 30,0 0,30 -30,0 z M 990,480 l 30,0 0,30 -30,0 z M 60,510 l 30,0 0,30 -30,0 z M 120,510 l 30,0 0,30 -30,0 z M 210,510 l 30,0 0,30 -30,0 z M 270,510 l 30,0 0,30 -30,0 z M 300,510 l 30,0 0,30 -30,0 z M 390,510 l 30,0 0,30 -30,0 z M 480,510 l 30,0 0,30 -30,0 z M 540,510 l 30,0 0,30 -30,0 z M 660,510 l 30,0 0,30 -30,0 z M 690,510 l 30,0 0,30 -30,0 z M 720,510 l 30,0 0,30 -30,0 z M 750,510 l 30,0 0,30 -30,0 z M 780,510 l 30,0 0,30 -30,0 z M 840,510 l 30,0 0,30 -30,0 z M 960,510 l 30,0 0,30 -30,0 z M 60,540 l 30,0 0,30 -30,0 z M 90,540 l 30,0 0,30 -30,0 z M 210,540 l 30,0 0,30 -30,0 z M 240,540 l 30,0 0,30 -30,0 z M 360,540 l 30,0 0,30 -30,0 z M 390,540 l 30,0 0,30 -30,0 z M 570,540 l 30,0 0,30 -30,0 z M 720,540 l 30,0 0,30 -30,0 z M 900,540 l 30,0 0,30 -30,0 z M 990,540 l 30,0 0,30 -30,0 z M 90,570 l 30,0 0,30 -30,0 z M 360,570 l 30,0 0,30 -30,0 z M 420,570 l 30,0 0,30 -30,0 z M 450,570 l 30,0 0,30 -30,0 z M 480,570 l 30,0 0,30 -30,0 z M 600,570 l 30,0 0,30 -30,0 z M 630,570 l 30,0 0,30 -30,0 z M 660,570 l 30,0 0,30 -30,0 z M 750,570 l 30,0 0,30 -30,0 z M 840,570 l 30,0 0,30 -30,0 z M 930,570 l 30,0 0,30 -30,0 z M 990,570 l 30,0 0,30 -30,0 z M 1020,570 l 30,0 0,30 -30,0 z M 60,600 l 30,0 0,30 -30,0 z M 90,600 l 30,0 0,30 -30,0 z M 210,600 l 30,0 0,30 -30,0 z M 240,600 l 30,0 0,30 -30,0 z M 270,600 l 30,0 0,30 -30,0 z M 450,600 l 30,0 0,30 -30,0 z M 480,600 l 30,0 0,30 -30,0 z M 510,600 l 30,0 0,30 -30,0 z M 600,600 l 30,0 0,30 -30,0 z M 720,600 l 30,0 0,30 -30,0 z M 780,600 l 30,0 0,30 -30,0 z M 810,600 l 30,0 0,30 -30,0 z M 840,600 l 30,0 0,30 -30,0 z M 930,600 l 30,0 0,30 -30,0 z M 990,600 l 30,0 0,30 -30,0 z M 180,630 l 30,0 0,30 -30,0 z M 420,630 l 30,0 0,30 -30,0 z M 450,630 l 30,0 0,30 -30,0 z M 510,630 l 30,0 0,30 -30,0 z M 540,630 l 30,0 0,30 -30,0 z M 630,630 l 30,0 0,30 -30,0 z M 660,630 l 30,0 0,30 -30,0 z M 690,630 l 30,0 0,30 -30,0 z M 810,630 l 30,0 0,30 -30,0 z M 960,630 l 30,0 0,30 -30,0 z M 150,660 l 30,0 0,30 -30,0 z M 210,660 l 30,0 0,30 -30,0 z M 240,660 l 30,0 0,30 -30,0 z M 270,660 l 30,0 0,30 -30,0 z M 300,660 l 30,0 0,30 -30,0 z M 420,660 l 30,0 0,30 -30,0 z M 480,660 l 30,0 0,30 -30,0 z M 570,660 l 30,0 0,30 -30,0 z M 630,660 l 30,0 0,30 -30,0 z M 720,660 l 30,0 0,30 -30,0 z M 810,660 l 30,0 0,30 -30,0 z M 900,660 l 30,0 0,30 -30,0 z M 990,660 l 30,0 0,30 -30,0 z M 60,690 l 30,0 0,30 -30,0 z M 90,690 l 30,0 0,30 -30,0 z M 150,690 l 30,0 0,30 -30,0 z M 210,690 l 30,0 0,30 -30,0 z M 270,690 l 30,0 0,30 -30,0 z M 540,690 l 30,0 0,30 -30,0 z M 630,690 l 30,0 0,30 -30,0 z M 690,690 l 30,0 0,30 -30,0 z M 750,690 l 30,0 0,30 -30,0 z M 840,690 l 30,0 0,30 -30,0 z M 930,690 l 30,0 0,30 -30,0 z M 990,690 l 30,0 0,30 -30,0 z M 1020,690 l 30,0 0,30 -30,0 z M 60,720 l 30,0 0,30 -30,0 z M 180,720 l 30,0 0,30 -30,0 z M 210,720 l 30,0 0,30 -30,0 z M 240,720 l 30,0 0,30 -30,0 z M 270,720 l 30,0 0,30 -30,0 z M 330,720 l 30,0 0,30 -30,0 z M 390,720 l 30,0 0,30 -30,0 z M 420,720 l 30,0 0,30 -30,0 z M 510,720 l 30,0 0,30 -30,0 z M 540,720 l 30,0 0,30 -30,0 z M 570,720 l 30,0 0,30 -30,0 z M 600,720 l 30,0 0,30 -30,0 z M 660,720 l 30,0 0,30 -30,0 z M 690,720 l 30,0 0,30 -30,0 z M 720,720 l 30,0 0,30 -30,0 z M 870,720 l 30,0 0,30 -30,0 z M 930,720 l 30,0 0,30 -30,0 z M 990,720 l 30,0 0,30 -30,0 z M 60,750 l 30,0 0,30 -30,0 z M 150,750 l 30,0 0,30 -30,0 z M 270,750 l 30,0 0,30 -30,0 z M 360,750 l 30,0 0,30 -30,0 z M 390,750 l 30,0 0,30 -30,0 z M 480,750 l 30,0 0,30 -30,0 z M 510,750 l 30,0 0,30 -30,0 z M 540,750 l 30,0 0,30 -30,0 z M 630,750 l 30,0 0,30 -30,0 z M 660,750 l 30,0 0,30 -30,0 z M 690,750 l 30,0 0,30 -30,0 z M 810,750 l 30,0 0,30 -30,0 z M 900,750 l 30,0 0,30 -30,0 z M 930,750 l 30,0 0,30 -30,0 z M 960,750 l 30,0 0,30 -30,0 z M 60,780 l 30,0 0,30 -30,0 z M 150,780 l 30,0 0,30 -30,0 z M 240,780 l 30,0 0,30 -30,0 z M 270,780 l 30,0 0,30 -30,0 z M 330,780 l 30,0 0,30 -30,0 z M 390,780 l 30,0 0,30 -30,0 z M 510,780 l 30,0 0,30 -30,0 z M 570,780 l 30,0 0,30 -30,0 z M 630,780 l 30,0 0,30 -30,0 z M 720,780 l 30,0 0,30 -30,0 z M 750,780 l 30,0 0,30 -30,0 z M 780,780 l 30,0 0,30 -30,0 z M 810,780 l 30,0 0,30 -30,0 z M 840,780 l 30,0 0,30 -30,0 z M 870,780 l 30,0 0,30 -30,0 z M 900,780 l 30,0 0,30 -30,0 z M 1020,780 l 30,0 0,30 -30,0 z M 300,810 l 30,0 0,30 -30,0 z M 330,810 l 30,0 0,30 -30,0 z M 420,810 l 30,0 0,30 -30,0 z M 450,810 l 30,0 0,30 -30,0 z M 480,810 l 30,0 0,30 -30,0 z M 540,810 l 30,0 0,30 -30,0 z M 570,810 l 30,0 0,30 -30,0 z M 630,810 l 30,0 0,30 -30,0 z M 660,810 l 30,0 0,30 -30,0 z M 780,810 l 30,0 0,30 -30,0 z M 900,810 l 30,0 0,30 -30,0 z M 930,810 l 30,0 0,30 -30,0 z M 960,810 l 30,0 0,30 -30,0 z M 1020,810 l 30,0 0,30 -30,0 z M 60,840 l 30,0 0,30 -30,0 z M 90,840 l 30,0 0,30 -30,0 z M 120,840 l 30,0 0,30 -30,0 z M 150,840 l 30,0 0,30 -30,0 z M 180,840 l 30,0 0,30 -30,0 z M 210,840 l 30,0 0,30 -30,0 z M 240,840 l 30,0 0,30 -30,0 z M 300,840 l 30,0 0,30 -30,0 z M 360,840 l 30,0 0,30 -30,0 z M 450,840 l 30,0 0,30 -30,0 z M 480,840 l 30,0 0,30 -30,0 z M 510,840 l 30,0 0,30 -30,0 z M 600,840 l 30,0 0,30 -30,0 z M 690,840 l 30,0 0,30 -30,0 z M 750,840 l 30,0 0,30 -30,0 z M 780,840 l 30,0 0,30 -30,0 z M 840,840 l 30,0 0,30 -30,0 z M 900,840 l 30,0 0,30 -30,0 z M 930,840 l 30,0 0,30 -30,0 z M 960,840 l 30,0 0,30 -30,0 z M 990,840 l 30,0 0,30 -30,0 z M 60,870 l 30,0 0,30 -30,0 z M 240,870 l 30,0 0,30 -30,0 z M 420,870 l 30,0 0,30 -30,0 z M 450,870 l 30,0 0,30 -30,0 z M 540,870 l 30,0 0,30 -30,0 z M 660,870 l 30,0 0,30 -30,0 z M 690,870 l 30,0 0,30 -30,0 z M 720,870 l 30,0 0,30 -30,0 z M 780,870 l 30,0 0,30 -30,0 z M 900,870 l 30,0 0,30 -30,0 z M 930,870 l 30,0 0,30 -30,0 z M 960,870 l 30,0 0,30 -30,0 z M 990,870 l 30,0 0,30 -30,0 z M 60,900 l 30,0 0,30 -30,0 z M 120,900 l 30,0 0,30 -30,0 z M 150,900 l 30,0 0,30 -30,0 z M 180,900 l 30,0 0,30 -30,0 z M 240,900 l 30,0 0,30 -30,0 z M 300,900 l 30,0 0,30 -30,0 z M 420,900 l 30,0 0,30 -30,0 z M 480,900 l 30,0 0,30 -30,0 z M 570,900 l 30,0 0,30 -30,0 z M 660,900 l 30,0 0,30 -30,0 z M 720,900 l 30,0 0,30 -30,0 z M 780,900 l 30,0 0,30 -30,0 z M 810,900 l 30,0 0,30 -30,0 z M 840,900 l 30,0 0,30 -30,0 z M 870,900 l 30,0 0,30 -30,0 z M 900,900 l 30,0 0,30 -30,0 z M 930,900 l 30,0 0,30 -30,0 z M 990,900 l 30,0 0,30 -30,0 z M 1020,900 l 30,0 0,30 -30,0 z M 60,930 l 30,0 0,30 -30,0 z M 120,930 l 30,0 0,30 -30,0 z M 150,930 l 30,0 0,30 -30,0 z M 180,930 l 30,0 0,30 -30,0 z M 240,930 l 30,0 0,30 -30,0 z M 300,930 l 30,0 0,30 -30,0 z M 360,930 l 30,0 0,30 -30,0 z M 540,930 l 30,0 0,30 -30,0 z M 630,930 l 30,0 0,30 -30,0 z M 660,930 l 30,0 0,30 -30,0 z M 690,930 l 30,0 0,30 -30,0 z M 750,930 l 30,0 0,30 -30,0 z M 780,930 l 30,0 0,30 -30,0 z M 810,930 l 30,0 0,30 -30,0 z M 870,930 l 30,0 0,30 -30,0 z M 900,930 l 30,0 0,30 -30,0 z M 930,930 l 30,0 0,30 -30,0 z M 960,930 l 30,0 0,30 -30,0 z M 990,930 l 30,0 0,30 -30,0 z M 1020,930 l 30,0 0,30 -30,0 z M 60,960 l 30,0 0,30 -30,0 z M 120,960 l 30,0 0,30 -30,0 z M 150,960 l 30,0 0,30 -30,0 z M 180,960 l 30,0 0,30 -30,0 z M 240,960 l 30,0 0,30 -30,0 z M 300,960 l 30,0 0,30 -30,0 z M 360,960 l 30,0 0,30 -30,0 z M 390,960 l 30,0 0,30 -30,0 z M 420,960 l 30,0 0,30 -30,0 z M 510,960 l 30,0 0,30 -30,0 z M 540,960 l 30,0 0,30 -30,0 z M 600,960 l 30,0 0,30 -30,0 z M 660,960 l 30,0 0,30 -30,0 z M 810,960 l 30,0 0,30 -30,0 z M 840,960 l 30,0 0,30 -30,0 z M 60,990 l 30,0 0,30 -30,0 z M 240,990 l 30,0 0,30 -30,0 z M 300,990 l 30,0 0,30 -30,0 z M 330,990 l 30,0 0,30 -30,0 z M 390,990 l 30,0 0,30 -30,0 z M 480,990 l 30,0 0,30 -30,0 z M 510,990 l 30,0 0,30 -30,0 z M 600,990 l 30,0 0,30 -30,0 z M 690,990 l 30,0 0,30 -30,0 z M 720,990 l 30,0 0,30 -30,0 z M 900,990 l 30,0 0,30 -30,0 z M 930,990 l 30,0 0,30 -30,0 z M 960,990 l 30,0 0,30 -30,0 z M 60,1020 l 30,0 0,30 -30,0 z M 90,1020 l 30,0 0,30 -30,0 z M 120,1020 l 30,0 0,30 -30,0 z M 150,1020 l 30,0 0,30 -30,0 z M 180,1020 l 30,0 0,30 -30,0 z M 210,1020 l 30,0 0,30 -30,0 z M 240,1020 l 30,0 0,30 -30,0 z M 300,1020 l 30,0 0,30 -30,0 z M 360,1020 l 30,0 0,30 -30,0 z M 390,1020 l 30,0 0,30 -30,0 z M 510,1020 l 30,0 0,30 -30,0 z M 570,1020 l 30,0 0,30 -30,0 z M 720,1020 l 30,0 0,30 -30,0 z M 750,1020 l 30,0 0,30 -30,0 z M 780,1020 l 30,0 0,30 -30,0 z M 900,1020 l 30,0 0,30 -30,0 z M 990,1020 l 30,0 0,30 -30,0 z " />
	</g>
</svg>
