<?xml version="1.0" standalone="no"?>
<svg xmlns="http://www.w3.org/2000/svg" version="1.1" width="1176" height="1320">
	<!-- Created with https://api.qrserver.com (QR Code API, see goQR.me/api for information) -->
	<title>QR Code</title>
	<desc>https://evolution-api-trixie-sindicato.db8enk.easypanel.host/</desc>
	<defs>
		<style>
			@import url('https://fonts.googleapis.com/css2?family=Satisfy&amp;display=swap');
		</style>
	</defs>
	<rect style="fill:#ffffff;fill-opacity:1" x="0" y="0" width="1176" height="1320" />
	<g id="elements">
		<path style="fill:#000000" d="M 48,48 l 24,0 0,24 -24,0 z M 72,48 l 24,0 0,24 -24,0 z M 96,48 l 24,0 0,24 -24,0 z M 120,48 l 24,0 0,24 -24,0 z M 144,48 l 24,0 0,24 -24,0 z M 168,48 l 24,0 0,24 -24,0 z M 192,48 l 24,0 0,24 -24,0 z M 240,48 l 24,0 0,24 -24,0 z M 336,48 l 24,0 0,24 -24,0 z M 384,48 l 24,0 0,24 -24,0 z M 408,48 l 24,0 0,24 -24,0 z M 432,48 l 24,0 0,24 -24,0 z M 480,48 l 24,0 0,24 -24,0 z M 528,48 l 24,0 0,24 -24,0 z M 576,48 l 24,0 0,24 -24,0 z M 624,48 l 24,0 0,24 -24,0 z M 720,48 l 24,0 0,24 -24,0 z M 744,48 l 24,0 0,24 -24,0 z M 768,48 l 24,0 0,24 -24,0 z M 792,48 l 24,0 0,24 -24,0 z M 816,48 l 24,0 0,24 -24,0 z M 912,48 l 24,0 0,24 -24,0 z M 960,48 l 24,0 0,24 -24,0 z M 984,48 l 24,0 0,24 -24,0 z M 1008,48 l 24,0 0,24 -24,0 z M 1032,48 l 24,0 0,24 -24,0 z M 1056,48 l 24,0 0,24 -24,0 z M 1080,48 l 24,0 0,24 -24,0 z M 1104,48 l 24,0 0,24 -24,0 z M 48,72 l 24,0 0,24 -24,0 z M 192,72 l 24,0 0,24 -24,0 z M 240,72 l 24,0 0,24 -24,0 z M 288,72 l 24,0 0,24 -24,0 z M 312,72 l 24,0 0,24 -24,0 z M 336,72 l 24,0 0,24 -24,0 z M 432,72 l 24,0 0,24 -24,0 z M 456,72 l 24,0 0,24 -24,0 z M 600,72 l 24,0 0,24 -24,0 z M 624,72 l 24,0 0,24 -24,0 z M 648,72 l 24,0 0,24 -24,0 z M 696,72 l 24,0 0,24 -24,0 z M 792,72 l 24,0 0,24 -24,0 z M 816,72 l 24,0 0,24 -24,0 z M 888,72 l 24,0 0,24 -24,0 z M 960,72 l 24,0 0,24 -24,0 z M 1104,72 l 24,0 0,24 -24,0 z M 48,96 l 24,0 0,24 -24,0 z M 96,96 l 24,0 0,24 -24,0 z M 120,96 l 24,0 0,24 -24,0 z M 144,96 l 24,0 0,24 -24,0 z M 192,96 l 24,0 0,24 -24,0 z M 240,96 l 24,0 0,24 -24,0 z M 264,96 l 24,0 0,24 -24,0 z M 288,96 l 24,0 0,24 -24,0 z M 312,96 l 24,0 0,24 -24,0 z M 360,96 l 24,0 0,24 -24,0 z M 408,96 l 24,0 0,24 -24,0 z M 456,96 l 24,0 0,24 -24,0 z M 480,96 l 24,0 0,24 -24,0 z M 576,96 l 24,0 0,24 -24,0 z M 600,96 l 24,0 0,24 -24,0 z M 648,96 l 24,0 0,24 -24,0 z M 672,96 l 24,0 0,24 -24,0 z M 720,96 l 24,0 0,24 -24,0 z M 768,96 l 24,0 0,24 -24,0 z M 840,96 l 24,0 0,24 -24,0 z M 888,96 l 24,0 0,24 -24,0 z M 960,96 l 24,0 0,24 -24,0 z M 1008,96 l 24,0 0,24 -24,0 z M 1032,96 l 24,0 0,24 -24,0 z M 1056,96 l 24,0 0,24 -24,0 z M 1104,96 l 24,0 0,24 -24,0 z M 48,120 l 24,0 0,24 -24,0 z M 96,120 l 24,0 0,24 -24,0 z M 120,120 l 24,0 0,24 -24,0 z M 144,120 l 24,0 0,24 -24,0 z M 192,120 l 24,0 0,24 -24,0 z M 264,120 l 24,0 0,24 -24,0 z M 288,120 l 24,0 0,24 -24,0 z M 312,120 l 24,0 0,24 -24,0 z M 336,120 l 24,0 0,24 -24,0 z M 360,120 l 24,0 0,24 -24,0 z M 384,120 l 24,0 0,24 -24,0 z M 408,120 l 24,0 0,24 -24,0 z M 504,120 l 24,0 0,24 -24,0 z M 552,120 l 24,0 0,24 -24,0 z M 600,120 l 24,0 0,24 -24,0 z M 624,120 l 24,0 0,24 -24,0 z M 672,120 l 24,0 0,24 -24,0 z M 792,120 l 24,0 0,24 -24,0 z M 816,120 l 24,0 0,24 -24,0 z M 888,120 l 24,0 0,24 -24,0 z M 912,120 l 24,0 0,24 -24,0 z M 960,120 l 24,0 0,24 -24,0 z M 1008,120 l 24,0 0,24 -24,0 z M 1032,120 l 24,0 0,24 -24,0 z M 1056,120 l 24,0 0,24 -24,0 z M 1104,120 l 24,0 0,24 -24,0 z M 48,144 l 24,0 0,24 -24,0 z M 96,144 l 24,0 0,24 -24,0 z M 120,144 l 24,0 0,24 -24,0 z M 144,144 l 24,0 0,24 -24,0 z M 192,144 l 24,0 0,24 -24,0 z M 288,144 l 24,0 0,24 -24,0 z M 336,144 l 24,0 0,24 -24,0 z M 384,144 l 24,0 0,24 -24,0 z M 408,144 l 24,0 0,24 -24,0 z M 432,144 l 24,0 0,24 -24,0 z M 456,144 l 24,0 0,24 -24,0 z M 504,144 l 24,0 0,24 -24,0 z M 528,144 l 24,0 0,24 -24,0 z M 552,144 l 24,0 0,24 -24,0 z M 576,144 l 24,0 0,24 -24,0 z M 600,144 l 24,0 0,24 -24,0 z M 624,144 l 24,0 0,24 -24,0 z M 648,144 l 24,0 0,24 -24,0 z M 672,144 l 24,0 0,24 -24,0 z M 696,144 l 24,0 0,24 -24,0 z M 720,144 l 24,0 0,24 -24,0 z M 744,144 l 24,0 0,24 -24,0 z M 768,144 l 24,0 0,24 -24,0 z M 816,144 l 24,0 0,24 -24,0 z M 864,144 l 24,0 0,24 -24,0 z M 888,144 l 24,0 0,24 -24,0 z M 912,144 l 24,0 0,24 -24,0 z M 960,144 l 24,0 0,24 -24,0 z M 1008,144 l 24,0 0,24 -24,0 z M 1032,144 l 24,0 0,24 -24,0 z M 1056,144 l 24,0 0,24 -24,0 z M 1104,144 l 24,0 0,24 -24,0 z M 48,168 l 24,0 0,24 -24,0 z M 192,168 l 24,0 0,24 -24,0 z M 240,168 l 24,0 0,24 -24,0 z M 264,168 l 24,0 0,24 -24,0 z M 288,168 l 24,0 0,24 -24,0 z M 312,168 l 24,0 0,24 -24,0 z M 336,168 l 24,0 0,24 -24,0 z M 360,168 l 24,0 0,24 -24,0 z M 384,168 l 24,0 0,24 -24,0 z M 408,168 l 24,0 0,24 -24,0 z M 456,168 l 24,0 0,24 -24,0 z M 504,168 l 24,0 0,24 -24,0 z M 528,168 l 24,0 0,24 -24,0 z M 624,168 l 24,0 0,24 -24,0 z M 720,168 l 24,0 0,24 -24,0 z M 792,168 l 24,0 0,24 -24,0 z M 816,168 l 24,0 0,24 -24,0 z M 960,168 l 24,0 0,24 -24,0 z M 1104,168 l 24,0 0,24 -24,0 z M 48,192 l 24,0 0,24 -24,0 z M 72,192 l 24,0 0,24 -24,0 z M 96,192 l 24,0 0,24 -24,0 z M 120,192 l 24,0 0,24 -24,0 z M 144,192 l 24,0 0,24 -24,0 z M 168,192 l 24,0 0,24 -24,0 z M 192,192 l 24,0 0,24 -24,0 z M 240,192 l 24,0 0,24 -24,0 z M 288,192 l 24,0 0,24 -24,0 z M 336,192 l 24,0 0,24 -24,0 z M 384,192 l 24,0 0,24 -24,0 z M 432,192 l 24,0 0,24 -24,0 z M 480,192 l 24,0 0,24 -24,0 z M 528,192 l 24,0 0,24 -24,0 z M 576,192 l 24,0 0,24 -24,0 z M 624,192 l 24,0 0,24 -24,0 z M 672,192 l 24,0 0,24 -24,0 z M 720,192 l 24,0 0,24 -24,0 z M 768,192 l 24,0 0,24 -24,0 z M 816,192 l 24,0 0,24 -24,0 z M 864,192 l 24,0 0,24 -24,0 z M 912,192 l 24,0 0,24 -24,0 z M 960,192 l 24,0 0,24 -24,0 z M 984,192 l 24,0 0,24 -24,0 z M 1008,192 l 24,0 0,24 -24,0 z M 1032,192 l 24,0 0,24 -24,0 z M 1056,192 l 24,0 0,24 -24,0 z M 1080,192 l 24,0 0,24 -24,0 z M 1104,192 l 24,0 0,24 -24,0 z M 240,216 l 24,0 0,24 -24,0 z M 264,216 l 24,0 0,24 -24,0 z M 288,216 l 24,0 0,24 -24,0 z M 312,216 l 24,0 0,24 -24,0 z M 336,216 l 24,0 0,24 -24,0 z M 384,216 l 24,0 0,24 -24,0 z M 408,216 l 24,0 0,24 -24,0 z M 432,216 l 24,0 0,24 -24,0 z M 528,216 l 24,0 0,24 -24,0 z M 624,216 l 24,0 0,24 -24,0 z M 672,216 l 24,0 0,24 -24,0 z M 744,216 l 24,0 0,24 -24,0 z M 768,216 l 24,0 0,24 -24,0 z M 792,216 l 24,0 0,24 -24,0 z M 816,216 l 24,0 0,24 -24,0 z M 864,216 l 24,0 0,24 -24,0 z M 888,216 l 24,0 0,24 -24,0 z M 96,240 l 24,0 0,24 -24,0 z M 120,240 l 24,0 0,24 -24,0 z M 144,240 l 24,0 0,24 -24,0 z M 192,240 l 24,0 0,24 -24,0 z M 240,240 l 24,0 0,24 -24,0 z M 288,240 l 24,0 0,24 -24,0 z M 336,240 l 24,0 0,24 -24,0 z M 432,240 l 24,0 0,24 -24,0 z M 456,240 l 24,0 0,24 -24,0 z M 528,240 l 24,0 0,24 -24,0 z M 552,240 l 24,0 0,24 -24,0 z M 576,240 l 24,0 0,24 -24,0 z M 600,240 l 24,0 0,24 -24,0 z M 624,240 l 24,0 0,24 -24,0 z M 696,240 l 24,0 0,24 -24,0 z M 768,240 l 24,0 0,24 -24,0 z M 792,240 l 24,0 0,24 -24,0 z M 864,240 l 24,0 0,24 -24,0 z M 936,240 l 24,0 0,24 -24,0 z M 960,240 l 24,0 0,24 -24,0 z M 984,240 l 24,0 0,24 -24,0 z M 1056,240 l 24,0 0,24 -24,0 z M 1080,240 l 24,0 0,24 -24,0 z M 1104,240 l 24,0 0,24 -24,0 z M 120,264 l 24,0 0,24 -24,0 z M 216,264 l 24,0 0,24 -24,0 z M 336,264 l 24,0 0,24 -24,0 z M 360,264 l 24,0 0,24 -24,0 z M 432,264 l 24,0 0,24 -24,0 z M 456,264 l 24,0 0,24 -24,0 z M 480,264 l 24,0 0,24 -24,0 z M 504,264 l 24,0 0,24 -24,0 z M 552,264 l 24,0 0,24 -24,0 z M 576,264 l 24,0 0,24 -24,0 z M 600,264 l 24,0 0,24 -24,0 z M 672,264 l 24,0 0,24 -24,0 z M 696,264 l 24,0 0,24 -24,0 z M 744,264 l 24,0 0,24 -24,0 z M 768,264 l 24,0 0,24 -24,0 z M 792,264 l 24,0 0,24 -24,0 z M 816,264 l 24,0 0,24 -24,0 z M 840,264 l 24,0 0,24 -24,0 z M 912,264 l 24,0 0,24 -24,0 z M 984,264 l 24,0 0,24 -24,0 z M 1056,264 l 24,0 0,24 -24,0 z M 1104,264 l 24,0 0,24 -24,0 z M 72,288 l 24,0 0,24 -24,0 z M 144,288 l 24,0 0,24 -24,0 z M 192,288 l 24,0 0,24 -24,0 z M 216,288 l 24,0 0,24 -24,0 z M 240,288 l 24,0 0,24 -24,0 z M 264,288 l 24,0 0,24 -24,0 z M 288,288 l 24,0 0,24 -24,0 z M 312,288 l 24,0 0,24 -24,0 z M 360,288 l 24,0 0,24 -24,0 z M 408,288 l 24,0 0,24 -24,0 z M 432,288 l 24,0 0,24 -24,0 z M 504,288 l 24,0 0,24 -24,0 z M 552,288 l 24,0 0,24 -24,0 z M 648,288 l 24,0 0,24 -24,0 z M 672,288 l 24,0 0,24 -24,0 z M 696,288 l 24,0 0,24 -24,0 z M 840,288 l 24,0 0,24 -24,0 z M 864,288 l 24,0 0,24 -24,0 z M 888,288 l 24,0 0,24 -24,0 z M 960,288 l 24,0 0,24 -24,0 z M 1008,288 l 24,0 0,24 -24,0 z M 1032,288 l 24,0 0,24 -24,0 z M 1056,288 l 24,0 0,24 -24,0 z M 1080,288 l 24,0 0,24 -24,0 z M 96,312 l 24,0 0,24 -24,0 z M 168,312 l 24,0 0,24 -24,0 z M 288,312 l 24,0 0,24 -24,0 z M 408,312 l 24,0 0,24 -24,0 z M 432,312 l 24,0 0,24 -24,0 z M 480,312 l 24,0 0,24 -24,0 z M 504,312 l 24,0 0,24 -24,0 z M 576,312 l 24,0 0,24 -24,0 z M 600,312 l 24,0 0,24 -24,0 z M 696,312 l 24,0 0,24 -24,0 z M 720,312 l 24,0 0,24 -24,0 z M 792,312 l 24,0 0,24 -24,0 z M 816,312 l 24,0 0,24 -24,0 z M 840,312 l 24,0 0,24 -24,0 z M 984,312 l 24,0 0,24 -24,0 z M 1008,312 l 24,0 0,24 -24,0 z M 1032,312 l 24,0 0,24 -24,0 z M 1056,312 l 24,0 0,24 -24,0 z M 1104,312 l 24,0 0,24 -24,0 z M 48,336 l 24,0 0,24 -24,0 z M 72,336 l 24,0 0,24 -24,0 z M 96,336 l 24,0 0,24 -24,0 z M 168,336 l 24,0 0,24 -24,0 z M 192,336 l 24,0 0,24 -24,0 z M 216,336 l 24,0 0,24 -24,0 z M 240,336 l 24,0 0,24 -24,0 z M 312,336 l 24,0 0,24 -24,0 z M 360,336 l 24,0 0,24 -24,0 z M 408,336 l 24,0 0,24 -24,0 z M 456,336 l 24,0 0,24 -24,0 z M 504,336 l 24,0 0,24 -24,0 z M 552,336 l 24,0 0,24 -24,0 z M 576,336 l 24,0 0,24 -24,0 z M 624,336 l 24,0 0,24 -24,0 z M 648,336 l 24,0 0,24 -24,0 z M 672,336 l 24,0 0,24 -24,0 z M 744,336 l 24,0 0,24 -24,0 z M 768,336 l 24,0 0,24 -24,0 z M 792,336 l 24,0 0,24 -24,0 z M 840,336 l 24,0 0,24 -24,0 z M 1080,336 l 24,0 0,24 -24,0 z M 1104,336 l 24,0 0,24 -24,0 z M 48,360 l 24,0 0,24 -24,0 z M 72,360 l 24,0 0,24 -24,0 z M 120,360 l 24,0 0,24 -24,0 z M 144,360 l 24,0 0,24 -24,0 z M 168,360 l 24,0 0,24 -24,0 z M 216,360 l 24,0 0,24 -24,0 z M 240,360 l 24,0 0,24 -24,0 z M 288,360 l 24,0 0,24 -24,0 z M 312,360 l 24,0 0,24 -24,0 z M 360,360 l 24,0 0,24 -24,0 z M 384,360 l 24,0 0,24 -24,0 z M 408,360 l 24,0 0,24 -24,0 z M 456,360 l 24,0 0,24 -24,0 z M 480,360 l 24,0 0,24 -24,0 z M 504,360 l 24,0 0,24 -24,0 z M 528,360 l 24,0 0,24 -24,0 z M 720,360 l 24,0 0,24 -24,0 z M 744,360 l 24,0 0,24 -24,0 z M 768,360 l 24,0 0,24 -24,0 z M 792,360 l 24,0 0,24 -24,0 z M 888,360 l 24,0 0,24 -24,0 z M 912,360 l 24,0 0,24 -24,0 z M 936,360 l 24,0 0,24 -24,0 z M 984,360 l 24,0 0,24 -24,0 z M 1104,360 l 24,0 0,24 -24,0 z M 72,384 l 24,0 0,24 -24,0 z M 96,384 l 24,0 0,24 -24,0 z M 144,384 l 24,0 0,24 -24,0 z M 168,384 l 24,0 0,24 -24,0 z M 192,384 l 24,0 0,24 -24,0 z M 240,384 l 24,0 0,24 -24,0 z M 288,384 l 24,0 0,24 -24,0 z M 312,384 l 24,0 0,24 -24,0 z M 384,384 l 24,0 0,24 -24,0 z M 408,384 l 24,0 0,24 -24,0 z M 456,384 l 24,0 0,24 -24,0 z M 600,384 l 24,0 0,24 -24,0 z M 648,384 l 24,0 0,24 -24,0 z M 720,384 l 24,0 0,24 -24,0 z M 744,384 l 24,0 0,24 -24,0 z M 840,384 l 24,0 0,24 -24,0 z M 864,384 l 24,0 0,24 -24,0 z M 936,384 l 24,0 0,24 -24,0 z M 960,384 l 24,0 0,24 -24,0 z M 984,384 l 24,0 0,24 -24,0 z M 1008,384 l 24,0 0,24 -24,0 z M 1056,384 l 24,0 0,24 -24,0 z M 1080,384 l 24,0 0,24 -24,0 z M 48,408 l 24,0 0,24 -24,0 z M 96,408 l 24,0 0,24 -24,0 z M 120,408 l 24,0 0,24 -24,0 z M 144,408 l 24,0 0,24 -24,0 z M 216,408 l 24,0 0,24 -24,0 z M 480,408 l 24,0 0,24 -24,0 z M 528,408 l 24,0 0,24 -24,0 z M 552,408 l 24,0 0,24 -24,0 z M 576,408 l 24,0 0,24 -24,0 z M 624,408 l 24,0 0,24 -24,0 z M 672,408 l 24,0 0,24 -24,0 z M 696,408 l 24,0 0,24 -24,0 z M 768,408 l 24,0 0,24 -24,0 z M 792,408 l 24,0 0,24 -24,0 z M 816,408 l 24,0 0,24 -24,0 z M 888,408 l 24,0 0,24 -24,0 z M 936,408 l 24,0 0,24 -24,0 z M 960,408 l 24,0 0,24 -24,0 z M 1008,408 l 24,0 0,24 -24,0 z M 1032,408 l 24,0 0,24 -24,0 z M 1056,408 l 24,0 0,24 -24,0 z M 48,432 l 24,0 0,24 -24,0 z M 96,432 l 24,0 0,24 -24,0 z M 144,432 l 24,0 0,24 -24,0 z M 168,432 l 24,0 0,24 -24,0 z M 192,432 l 24,0 0,24 -24,0 z M 264,432 l 24,0 0,24 -24,0 z M 288,432 l 24,0 0,24 -24,0 z M 312,432 l 24,0 0,24 -24,0 z M 480,432 l 24,0 0,24 -24,0 z M 552,432 l 24,0 0,24 -24,0 z M 576,432 l 24,0 0,24 -24,0 z M 600,432 l 24,0 0,24 -24,0 z M 624,432 l 24,0 0,24 -24,0 z M 648,432 l 24,0 0,24 -24,0 z M 696,432 l 24,0 0,24 -24,0 z M 744,432 l 24,0 0,24 -24,0 z M 768,432 l 24,0 0,24 -24,0 z M 792,432 l 24,0 0,24 -24,0 z M 840,432 l 24,0 0,24 -24,0 z M 888,432 l 24,0 0,24 -24,0 z M 960,432 l 24,0 0,24 -24,0 z M 1032,432 l 24,0 0,24 -24,0 z M 1104,432 l 24,0 0,24 -24,0 z M 96,456 l 24,0 0,24 -24,0 z M 144,456 l 24,0 0,24 -24,0 z M 168,456 l 24,0 0,24 -24,0 z M 216,456 l 24,0 0,24 -24,0 z M 288,456 l 24,0 0,24 -24,0 z M 432,456 l 24,0 0,24 -24,0 z M 456,456 l 24,0 0,24 -24,0 z M 480,456 l 24,0 0,24 -24,0 z M 528,456 l 24,0 0,24 -24,0 z M 600,456 l 24,0 0,24 -24,0 z M 624,456 l 24,0 0,24 -24,0 z M 672,456 l 24,0 0,24 -24,0 z M 696,456 l 24,0 0,24 -24,0 z M 720,456 l 24,0 0,24 -24,0 z M 768,456 l 24,0 0,24 -24,0 z M 888,456 l 24,0 0,24 -24,0 z M 912,456 l 24,0 0,24 -24,0 z M 1032,456 l 24,0 0,24 -24,0 z M 1056,456 l 24,0 0,24 -24,0 z M 1080,456 l 24,0 0,24 -24,0 z M 1104,456 l 24,0 0,24 -24,0 z M 48,480 l 24,0 0,24 -24,0 z M 192,480 l 24,0 0,24 -24,0 z M 216,480 l 24,0 0,24 -24,0 z M 240,480 l 24,0 0,24 -24,0 z M 384,480 l 24,0 0,24 -24,0 z M 432,480 l 24,0 0,24 -24,0 z M 480,480 l 24,0 0,24 -24,0 z M 528,480 l 24,0 0,24 -24,0 z M 552,480 l 24,0 0,24 -24,0 z M 576,480 l 24,0 0,24 -24,0 z M 672,480 l 24,0 0,24 -24,0 z M 720,480 l 24,0 0,24 -24,0 z M 744,480 l 24,0 0,24 -24,0 z M 768,480 l 24,0 0,24 -24,0 z M 792,480 l 24,0 0,24 -24,0 z M 840,480 l 24,0 0,24 -24,0 z M 864,480 l 24,0 0,24 -24,0 z M 888,480 l 24,0 0,24 -24,0 z M 912,480 l 24,0 0,24 -24,0 z M 960,480 l 24,0 0,24 -24,0 z M 1008,480 l 24,0 0,24 -24,0 z M 1056,480 l 24,0 0,24 -24,0 z M 1080,480 l 24,0 0,24 -24,0 z M 48,504 l 24,0 0,24 -24,0 z M 96,504 l 24,0 0,24 -24,0 z M 168,504 l 24,0 0,24 -24,0 z M 216,504 l 24,0 0,24 -24,0 z M 240,504 l 24,0 0,24 -24,0 z M 336,504 l 24,0 0,24 -24,0 z M 360,504 l 24,0 0,24 -24,0 z M 408,504 l 24,0 0,24 -24,0 z M 432,504 l 24,0 0,24 -24,0 z M 456,504 l 24,0 0,24 -24,0 z M 672,504 l 24,0 0,24 -24,0 z M 696,504 l 24,0 0,24 -24,0 z M 744,504 l 24,0 0,24 -24,0 z M 816,504 l 24,0 0,24 -24,0 z M 864,504 l 24,0 0,24 -24,0 z M 912,504 l 24,0 0,24 -24,0 z M 984,504 l 24,0 0,24 -24,0 z M 1008,504 l 24,0 0,24 -24,0 z M 1032,504 l 24,0 0,24 -24,0 z M 1056,504 l 24,0 0,24 -24,0 z M 1080,504 l 24,0 0,24 -24,0 z M 72,528 l 24,0 0,24 -24,0 z M 96,528 l 24,0 0,24 -24,0 z M 120,528 l 24,0 0,24 -24,0 z M 144,528 l 24,0 0,24 -24,0 z M 168,528 l 24,0 0,24 -24,0 z M 192,528 l 24,0 0,24 -24,0 z M 216,528 l 24,0 0,24 -24,0 z M 240,528 l 24,0 0,24 -24,0 z M 264,528 l 24,0 0,24 -24,0 z M 312,528 l 24,0 0,24 -24,0 z M 336,528 l 24,0 0,24 -24,0 z M 360,528 l 24,0 0,24 -24,0 z M 384,528 l 24,0 0,24 -24,0 z M 408,528 l 24,0 0,24 -24,0 z M 456,528 l 24,0 0,24 -24,0 z M 480,528 l 24,0 0,24 -24,0 z M 528,528 l 24,0 0,24 -24,0 z M 552,528 l 24,0 0,24 -24,0 z M 576,528 l 24,0 0,24 -24,0 z M 600,528 l 24,0 0,24 -24,0 z M 624,528 l 24,0 0,24 -24,0 z M 672,528 l 24,0 0,24 -24,0 z M 696,528 l 24,0 0,24 -24,0 z M 792,528 l 24,0 0,24 -24,0 z M 840,528 l 24,0 0,24 -24,0 z M 864,528 l 24,0 0,24 -24,0 z M 912,528 l 24,0 0,24 -24,0 z M 936,528 l 24,0 0,24 -24,0 z M 960,528 l 24,0 0,24 -24,0 z M 984,528 l 24,0 0,24 -24,0 z M 1008,528 l 24,0 0,24 -24,0 z M 1080,528 l 24,0 0,24 -24,0 z M 72,552 l 24,0 0,24 -24,0 z M 120,552 l 24,0 0,24 -24,0 z M 144,552 l 24,0 0,24 -24,0 z M 240,552 l 24,0 0,24 -24,0 z M 312,552 l 24,0 0,24 -24,0 z M 360,552 l 24,0 0,24 -24,0 z M 456,552 l 24,0 0,24 -24,0 z M 528,552 l 24,0 0,24 -24,0 z M 624,552 l 24,0 0,24 -24,0 z M 672,552 l 24,0 0,24 -24,0 z M 744,552 l 24,0 0,24 -24,0 z M 816,552 l 24,0 0,24 -24,0 z M 888,552 l 24,0 0,24 -24,0 z M 912,552 l 24,0 0,24 -24,0 z M 1008,552 l 24,0 0,24 -24,0 z M 1104,552 l 24,0 0,24 -24,0 z M 96,576 l 24,0 0,24 -24,0 z M 120,576 l 24,0 0,24 -24,0 z M 144,576 l 24,0 0,24 -24,0 z M 192,576 l 24,0 0,24 -24,0 z M 240,576 l 24,0 0,24 -24,0 z M 264,576 l 24,0 0,24 -24,0 z M 360,576 l 24,0 0,24 -24,0 z M 384,576 l 24,0 0,24 -24,0 z M 456,576 l 24,0 0,24 -24,0 z M 528,576 l 24,0 0,24 -24,0 z M 576,576 l 24,0 0,24 -24,0 z M 624,576 l 24,0 0,24 -24,0 z M 648,576 l 24,0 0,24 -24,0 z M 696,576 l 24,0 0,24 -24,0 z M 720,576 l 24,0 0,24 -24,0 z M 768,576 l 24,0 0,24 -24,0 z M 792,576 l 24,0 0,24 -24,0 z M 840,576 l 24,0 0,24 -24,0 z M 864,576 l 24,0 0,24 -24,0 z M 912,576 l 24,0 0,24 -24,0 z M 960,576 l 24,0 0,24 -24,0 z M 1008,576 l 24,0 0,24 -24,0 z M 1032,576 l 24,0 0,24 -24,0 z M 1056,576 l 24,0 0,24 -24,0 z M 1080,576 l 24,0 0,24 -24,0 z M 96,600 l 24,0 0,24 -24,0 z M 120,600 l 24,0 0,24 -24,0 z M 144,600 l 24,0 0,24 -24,0 z M 240,600 l 24,0 0,24 -24,0 z M 336,600 l 24,0 0,24 -24,0 z M 456,600 l 24,0 0,24 -24,0 z M 528,600 l 24,0 0,24 -24,0 z M 624,600 l 24,0 0,24 -24,0 z M 648,600 l 24,0 0,24 -24,0 z M 672,600 l 24,0 0,24 -24,0 z M 696,600 l 24,0 0,24 -24,0 z M 768,600 l 24,0 0,24 -24,0 z M 840,600 l 24,0 0,24 -24,0 z M 912,600 l 24,0 0,24 -24,0 z M 1008,600 l 24,0 0,24 -24,0 z M 1032,600 l 24,0 0,24 -24,0 z M 1056,600 l 24,0 0,24 -24,0 z M 1080,600 l 24,0 0,24 -24,0 z M 72,624 l 24,0 0,24 -24,0 z M 96,624 l 24,0 0,24 -24,0 z M 144,624 l 24,0 0,24 -24,0 z M 168,624 l 24,0 0,24 -24,0 z M 192,624 l 24,0 0,24 -24,0 z M 216,624 l 24,0 0,24 -24,0 z M 240,624 l 24,0 0,24 -24,0 z M 264,624 l 24,0 0,24 -24,0 z M 288,624 l 24,0 0,24 -24,0 z M 336,624 l 24,0 0,24 -24,0 z M 360,624 l 24,0 0,24 -24,0 z M 384,624 l 24,0 0,24 -24,0 z M 456,624 l 24,0 0,24 -24,0 z M 480,624 l 24,0 0,24 -24,0 z M 528,624 l 24,0 0,24 -24,0 z M 552,624 l 24,0 0,24 -24,0 z M 576,624 l 24,0 0,24 -24,0 z M 600,624 l 24,0 0,24 -24,0 z M 624,624 l 24,0 0,24 -24,0 z M 672,624 l 24,0 0,24 -24,0 z M 696,624 l 24,0 0,24 -24,0 z M 720,624 l 24,0 0,24 -24,0 z M 744,624 l 24,0 0,24 -24,0 z M 864,624 l 24,0 0,24 -24,0 z M 912,624 l 24,0 0,24 -24,0 z M 936,624 l 24,0 0,24 -24,0 z M 960,624 l 24,0 0,24 -24,0 z M 984,624 l 24,0 0,24 -24,0 z M 1008,624 l 24,0 0,24 -24,0 z M 1080,624 l 24,0 0,24 -24,0 z M 1104,624 l 24,0 0,24 -24,0 z M 48,648 l 24,0 0,24 -24,0 z M 144,648 l 24,0 0,24 -24,0 z M 288,648 l 24,0 0,24 -24,0 z M 312,648 l 24,0 0,24 -24,0 z M 336,648 l 24,0 0,24 -24,0 z M 360,648 l 24,0 0,24 -24,0 z M 408,648 l 24,0 0,24 -24,0 z M 432,648 l 24,0 0,24 -24,0 z M 480,648 l 24,0 0,24 -24,0 z M 528,648 l 24,0 0,24 -24,0 z M 576,648 l 24,0 0,24 -24,0 z M 600,648 l 24,0 0,24 -24,0 z M 624,648 l 24,0 0,24 -24,0 z M 696,648 l 24,0 0,24 -24,0 z M 720,648 l 24,0 0,24 -24,0 z M 744,648 l 24,0 0,24 -24,0 z M 792,648 l 24,0 0,24 -24,0 z M 816,648 l 24,0 0,24 -24,0 z M 888,648 l 24,0 0,24 -24,0 z M 912,648 l 24,0 0,24 -24,0 z M 936,648 l 24,0 0,24 -24,0 z M 960,648 l 24,0 0,24 -24,0 z M 1032,648 l 24,0 0,24 -24,0 z M 1056,648 l 24,0 0,24 -24,0 z M 1104,648 l 24,0 0,24 -24,0 z M 72,672 l 24,0 0,24 -24,0 z M 120,672 l 24,0 0,24 -24,0 z M 168,672 l 24,0 0,24 -24,0 z M 192,672 l 24,0 0,24 -24,0 z M 264,672 l 24,0 0,24 -24,0 z M 288,672 l 24,0 0,24 -24,0 z M 312,672 l 24,0 0,24 -24,0 z M 360,672 l 24,0 0,24 -24,0 z M 408,672 l 24,0 0,24 -24,0 z M 456,672 l 24,0 0,24 -24,0 z M 480,672 l 24,0 0,24 -24,0 z M 552,672 l 24,0 0,24 -24,0 z M 624,672 l 24,0 0,24 -24,0 z M 696,672 l 24,0 0,24 -24,0 z M 720,672 l 24,0 0,24 -24,0 z M 792,672 l 24,0 0,24 -24,0 z M 816,672 l 24,0 0,24 -24,0 z M 864,672 l 24,0 0,24 -24,0 z M 888,672 l 24,0 0,24 -24,0 z M 912,672 l 24,0 0,24 -24,0 z M 936,672 l 24,0 0,24 -24,0 z M 1008,672 l 24,0 0,24 -24,0 z M 1056,672 l 24,0 0,24 -24,0 z M 1080,672 l 24,0 0,24 -24,0 z M 48,696 l 24,0 0,24 -24,0 z M 144,696 l 24,0 0,24 -24,0 z M 216,696 l 24,0 0,24 -24,0 z M 264,696 l 24,0 0,24 -24,0 z M 288,696 l 24,0 0,24 -24,0 z M 336,696 l 24,0 0,24 -24,0 z M 408,696 l 24,0 0,24 -24,0 z M 456,696 l 24,0 0,24 -24,0 z M 576,696 l 24,0 0,24 -24,0 z M 600,696 l 24,0 0,24 -24,0 z M 624,696 l 24,0 0,24 -24,0 z M 648,696 l 24,0 0,24 -24,0 z M 696,696 l 24,0 0,24 -24,0 z M 720,696 l 24,0 0,24 -24,0 z M 744,696 l 24,0 0,24 -24,0 z M 792,696 l 24,0 0,24 -24,0 z M 816,696 l 24,0 0,24 -24,0 z M 864,696 l 24,0 0,24 -24,0 z M 888,696 l 24,0 0,24 -24,0 z M 960,696 l 24,0 0,24 -24,0 z M 1008,696 l 24,0 0,24 -24,0 z M 1032,696 l 24,0 0,24 -24,0 z M 1056,696 l 24,0 0,24 -24,0 z M 72,720 l 24,0 0,24 -24,0 z M 120,720 l 24,0 0,24 -24,0 z M 144,720 l 24,0 0,24 -24,0 z M 168,720 l 24,0 0,24 -24,0 z M 192,720 l 24,0 0,24 -24,0 z M 240,720 l 24,0 0,24 -24,0 z M 336,720 l 24,0 0,24 -24,0 z M 456,720 l 24,0 0,24 -24,0 z M 480,720 l 24,0 0,24 -24,0 z M 504,720 l 24,0 0,24 -24,0 z M 528,720 l 24,0 0,24 -24,0 z M 552,720 l 24,0 0,24 -24,0 z M 624,720 l 24,0 0,24 -24,0 z M 648,720 l 24,0 0,24 -24,0 z M 672,720 l 24,0 0,24 -24,0 z M 696,720 l 24,0 0,24 -24,0 z M 720,720 l 24,0 0,24 -24,0 z M 792,720 l 24,0 0,24 -24,0 z M 864,720 l 24,0 0,24 -24,0 z M 912,720 l 24,0 0,24 -24,0 z M 936,720 l 24,0 0,24 -24,0 z M 1008,720 l 24,0 0,24 -24,0 z M 120,744 l 24,0 0,24 -24,0 z M 144,744 l 24,0 0,24 -24,0 z M 240,744 l 24,0 0,24 -24,0 z M 312,744 l 24,0 0,24 -24,0 z M 432,744 l 24,0 0,24 -24,0 z M 480,744 l 24,0 0,24 -24,0 z M 576,744 l 24,0 0,24 -24,0 z M 624,744 l 24,0 0,24 -24,0 z M 648,744 l 24,0 0,24 -24,0 z M 696,744 l 24,0 0,24 -24,0 z M 720,744 l 24,0 0,24 -24,0 z M 744,744 l 24,0 0,24 -24,0 z M 792,744 l 24,0 0,24 -24,0 z M 912,744 l 24,0 0,24 -24,0 z M 936,744 l 24,0 0,24 -24,0 z M 1032,744 l 24,0 0,24 -24,0 z M 1104,744 l 24,0 0,24 -24,0 z M 72,768 l 24,0 0,24 -24,0 z M 120,768 l 24,0 0,24 -24,0 z M 192,768 l 24,0 0,24 -24,0 z M 216,768 l 24,0 0,24 -24,0 z M 240,768 l 24,0 0,24 -24,0 z M 264,768 l 24,0 0,24 -24,0 z M 288,768 l 24,0 0,24 -24,0 z M 384,768 l 24,0 0,24 -24,0 z M 432,768 l 24,0 0,24 -24,0 z M 480,768 l 24,0 0,24 -24,0 z M 504,768 l 24,0 0,24 -24,0 z M 528,768 l 24,0 0,24 -24,0 z M 576,768 l 24,0 0,24 -24,0 z M 600,768 l 24,0 0,24 -24,0 z M 624,768 l 24,0 0,24 -24,0 z M 648,768 l 24,0 0,24 -24,0 z M 672,768 l 24,0 0,24 -24,0 z M 720,768 l 24,0 0,24 -24,0 z M 840,768 l 24,0 0,24 -24,0 z M 864,768 l 24,0 0,24 -24,0 z M 888,768 l 24,0 0,24 -24,0 z M 912,768 l 24,0 0,24 -24,0 z M 936,768 l 24,0 0,24 -24,0 z M 984,768 l 24,0 0,24 -24,0 z M 240,792 l 24,0 0,24 -24,0 z M 336,792 l 24,0 0,24 -24,0 z M 432,792 l 24,0 0,24 -24,0 z M 552,792 l 24,0 0,24 -24,0 z M 576,792 l 24,0 0,24 -24,0 z M 600,792 l 24,0 0,24 -24,0 z M 648,792 l 24,0 0,24 -24,0 z M 672,792 l 24,0 0,24 -24,0 z M 720,792 l 24,0 0,24 -24,0 z M 744,792 l 24,0 0,24 -24,0 z M 768,792 l 24,0 0,24 -24,0 z M 816,792 l 24,0 0,24 -24,0 z M 840,792 l 24,0 0,24 -24,0 z M 864,792 l 24,0 0,24 -24,0 z M 888,792 l 24,0 0,24 -24,0 z M 960,792 l 24,0 0,24 -24,0 z M 1032,792 l 24,0 0,24 -24,0 z M 1056,792 l 24,0 0,24 -24,0 z M 1080,792 l 24,0 0,24 -24,0 z M 1104,792 l 24,0 0,24 -24,0 z M 72,816 l 24,0 0,24 -24,0 z M 144,816 l 24,0 0,24 -24,0 z M 168,816 l 24,0 0,24 -24,0 z M 192,816 l 24,0 0,24 -24,0 z M 216,816 l 24,0 0,24 -24,0 z M 312,816 l 24,0 0,24 -24,0 z M 336,816 l 24,0 0,24 -24,0 z M 360,816 l 24,0 0,24 -24,0 z M 384,816 l 24,0 0,24 -24,0 z M 408,816 l 24,0 0,24 -24,0 z M 552,816 l 24,0 0,24 -24,0 z M 600,816 l 24,0 0,24 -24,0 z M 624,816 l 24,0 0,24 -24,0 z M 672,816 l 24,0 0,24 -24,0 z M 696,816 l 24,0 0,24 -24,0 z M 744,816 l 24,0 0,24 -24,0 z M 792,816 l 24,0 0,24 -24,0 z M 912,816 l 24,0 0,24 -24,0 z M 936,816 l 24,0 0,24 -24,0 z M 960,816 l 24,0 0,24 -24,0 z M 984,816 l 24,0 0,24 -24,0 z M 1008,816 l 24,0 0,24 -24,0 z M 1080,816 l 24,0 0,24 -24,0 z M 1104,816 l 24,0 0,24 -24,0 z M 48,840 l 24,0 0,24 -24,0 z M 72,840 l 24,0 0,24 -24,0 z M 96,840 l 24,0 0,24 -24,0 z M 144,840 l 24,0 0,24 -24,0 z M 216,840 l 24,0 0,24 -24,0 z M 240,840 l 24,0 0,24 -24,0 z M 264,840 l 24,0 0,24 -24,0 z M 312,840 l 24,0 0,24 -24,0 z M 360,840 l 24,0 0,24 -24,0 z M 384,840 l 24,0 0,24 -24,0 z M 432,840 l 24,0 0,24 -24,0 z M 456,840 l 24,0 0,24 -24,0 z M 480,840 l 24,0 0,24 -24,0 z M 552,840 l 24,0 0,24 -24,0 z M 648,840 l 24,0 0,24 -24,0 z M 672,840 l 24,0 0,24 -24,0 z M 696,840 l 24,0 0,24 -24,0 z M 768,840 l 24,0 0,24 -24,0 z M 792,840 l 24,0 0,24 -24,0 z M 816,840 l 24,0 0,24 -24,0 z M 840,840 l 24,0 0,24 -24,0 z M 888,840 l 24,0 0,24 -24,0 z M 960,840 l 24,0 0,24 -24,0 z M 1032,840 l 24,0 0,24 -24,0 z M 1056,840 l 24,0 0,24 -24,0 z M 1080,840 l 24,0 0,24 -24,0 z M 1104,840 l 24,0 0,24 -24,0 z M 144,864 l 24,0 0,24 -24,0 z M 192,864 l 24,0 0,24 -24,0 z M 216,864 l 24,0 0,24 -24,0 z M 264,864 l 24,0 0,24 -24,0 z M 312,864 l 24,0 0,24 -24,0 z M 408,864 l 24,0 0,24 -24,0 z M 432,864 l 24,0 0,24 -24,0 z M 504,864 l 24,0 0,24 -24,0 z M 552,864 l 24,0 0,24 -24,0 z M 600,864 l 24,0 0,24 -24,0 z M 648,864 l 24,0 0,24 -24,0 z M 768,864 l 24,0 0,24 -24,0 z M 840,864 l 24,0 0,24 -24,0 z M 864,864 l 24,0 0,24 -24,0 z M 888,864 l 24,0 0,24 -24,0 z M 912,864 l 24,0 0,24 -24,0 z M 936,864 l 24,0 0,24 -24,0 z M 1056,864 l 24,0 0,24 -24,0 z M 1080,864 l 24,0 0,24 -24,0 z M 72,888 l 24,0 0,24 -24,0 z M 96,888 l 24,0 0,24 -24,0 z M 120,888 l 24,0 0,24 -24,0 z M 144,888 l 24,0 0,24 -24,0 z M 216,888 l 24,0 0,24 -24,0 z M 240,888 l 24,0 0,24 -24,0 z M 336,888 l 24,0 0,24 -24,0 z M 360,888 l 24,0 0,24 -24,0 z M 408,888 l 24,0 0,24 -24,0 z M 456,888 l 24,0 0,24 -24,0 z M 480,888 l 24,0 0,24 -24,0 z M 528,888 l 24,0 0,24 -24,0 z M 648,888 l 24,0 0,24 -24,0 z M 672,888 l 24,0 0,24 -24,0 z M 696,888 l 24,0 0,24 -24,0 z M 720,888 l 24,0 0,24 -24,0 z M 768,888 l 24,0 0,24 -24,0 z M 792,888 l 24,0 0,24 -24,0 z M 816,888 l 24,0 0,24 -24,0 z M 840,888 l 24,0 0,24 -24,0 z M 864,888 l 24,0 0,24 -24,0 z M 888,888 l 24,0 0,24 -24,0 z M 960,888 l 24,0 0,24 -24,0 z M 1032,888 l 24,0 0,24 -24,0 z M 1056,888 l 24,0 0,24 -24,0 z M 1080,888 l 24,0 0,24 -24,0 z M 48,912 l 24,0 0,24 -24,0 z M 120,912 l 24,0 0,24 -24,0 z M 144,912 l 24,0 0,24 -24,0 z M 192,912 l 24,0 0,24 -24,0 z M 216,912 l 24,0 0,24 -24,0 z M 288,912 l 24,0 0,24 -24,0 z M 384,912 l 24,0 0,24 -24,0 z M 408,912 l 24,0 0,24 -24,0 z M 480,912 l 24,0 0,24 -24,0 z M 528,912 l 24,0 0,24 -24,0 z M 552,912 l 24,0 0,24 -24,0 z M 576,912 l 24,0 0,24 -24,0 z M 600,912 l 24,0 0,24 -24,0 z M 624,912 l 24,0 0,24 -24,0 z M 648,912 l 24,0 0,24 -24,0 z M 696,912 l 24,0 0,24 -24,0 z M 792,912 l 24,0 0,24 -24,0 z M 912,912 l 24,0 0,24 -24,0 z M 936,912 l 24,0 0,24 -24,0 z M 960,912 l 24,0 0,24 -24,0 z M 984,912 l 24,0 0,24 -24,0 z M 1008,912 l 24,0 0,24 -24,0 z M 1032,912 l 24,0 0,24 -24,0 z M 1104,912 l 24,0 0,24 -24,0 z M 240,936 l 24,0 0,24 -24,0 z M 336,936 l 24,0 0,24 -24,0 z M 360,936 l 24,0 0,24 -24,0 z M 384,936 l 24,0 0,24 -24,0 z M 408,936 l 24,0 0,24 -24,0 z M 432,936 l 24,0 0,24 -24,0 z M 456,936 l 24,0 0,24 -24,0 z M 504,936 l 24,0 0,24 -24,0 z M 528,936 l 24,0 0,24 -24,0 z M 624,936 l 24,0 0,24 -24,0 z M 672,936 l 24,0 0,24 -24,0 z M 696,936 l 24,0 0,24 -24,0 z M 720,936 l 24,0 0,24 -24,0 z M 792,936 l 24,0 0,24 -24,0 z M 888,936 l 24,0 0,24 -24,0 z M 912,936 l 24,0 0,24 -24,0 z M 1008,936 l 24,0 0,24 -24,0 z M 1080,936 l 24,0 0,24 -24,0 z M 1104,936 l 24,0 0,24 -24,0 z M 48,960 l 24,0 0,24 -24,0 z M 72,960 l 24,0 0,24 -24,0 z M 96,960 l 24,0 0,24 -24,0 z M 120,960 l 24,0 0,24 -24,0 z M 144,960 l 24,0 0,24 -24,0 z M 168,960 l 24,0 0,24 -24,0 z M 192,960 l 24,0 0,24 -24,0 z M 288,960 l 24,0 0,24 -24,0 z M 336,960 l 24,0 0,24 -24,0 z M 360,960 l 24,0 0,24 -24,0 z M 408,960 l 24,0 0,24 -24,0 z M 432,960 l 24,0 0,24 -24,0 z M 528,960 l 24,0 0,24 -24,0 z M 576,960 l 24,0 0,24 -24,0 z M 624,960 l 24,0 0,24 -24,0 z M 768,960 l 24,0 0,24 -24,0 z M 792,960 l 24,0 0,24 -24,0 z M 816,960 l 24,0 0,24 -24,0 z M 840,960 l 24,0 0,24 -24,0 z M 864,960 l 24,0 0,24 -24,0 z M 912,960 l 24,0 0,24 -24,0 z M 960,960 l 24,0 0,24 -24,0 z M 1008,960 l 24,0 0,24 -24,0 z M 1032,960 l 24,0 0,24 -24,0 z M 1056,960 l 24,0 0,24 -24,0 z M 1080,960 l 24,0 0,24 -24,0 z M 48,984 l 24,0 0,24 -24,0 z M 192,984 l 24,0 0,24 -24,0 z M 264,984 l 24,0 0,24 -24,0 z M 432,984 l 24,0 0,24 -24,0 z M 528,984 l 24,0 0,24 -24,0 z M 624,984 l 24,0 0,24 -24,0 z M 672,984 l 24,0 0,24 -24,0 z M 696,984 l 24,0 0,24 -24,0 z M 744,984 l 24,0 0,24 -24,0 z M 792,984 l 24,0 0,24 -24,0 z M 816,984 l 24,0 0,24 -24,0 z M 912,984 l 24,0 0,24 -24,0 z M 1008,984 l 24,0 0,24 -24,0 z M 1032,984 l 24,0 0,24 -24,0 z M 1056,984 l 24,0 0,24 -24,0 z M 48,1008 l 24,0 0,24 -24,0 z M 96,1008 l 24,0 0,24 -24,0 z M 120,1008 l 24,0 0,24 -24,0 z M 144,1008 l 24,0 0,24 -24,0 z M 192,1008 l 24,0 0,24 -24,0 z M 240,1008 l 24,0 0,24 -24,0 z M 312,1008 l 24,0 0,24 -24,0 z M 336,1008 l 24,0 0,24 -24,0 z M 384,1008 l 24,0 0,24 -24,0 z M 408,1008 l 24,0 0,24 -24,0 z M 432,1008 l 24,0 0,24 -24,0 z M 456,1008 l 24,0 0,24 -24,0 z M 480,1008 l 24,0 0,24 -24,0 z M 504,1008 l 24,0 0,24 -24,0 z M 528,1008 l 24,0 0,24 -24,0 z M 552,1008 l 24,0 0,24 -24,0 z M 576,1008 l 24,0 0,24 -24,0 z M 600,1008 l 24,0 0,24 -24,0 z M 624,1008 l 24,0 0,24 -24,0 z M 696,1008 l 24,0 0,24 -24,0 z M 792,1008 l 24,0 0,24 -24,0 z M 888,1008 l 24,0 0,24 -24,0 z M 912,1008 l 24,0 0,24 -24,0 z M 936,1008 l 24,0 0,24 -24,0 z M 960,1008 l 24,0 0,24 -24,0 z M 984,1008 l 24,0 0,24 -24,0 z M 1008,1008 l 24,0 0,24 -24,0 z M 1080,1008 l 24,0 0,24 -24,0 z M 1104,1008 l 24,0 0,24 -24,0 z M 48,1032 l 24,0 0,24 -24,0 z M 96,1032 l 24,0 0,24 -24,0 z M 120,1032 l 24,0 0,24 -24,0 z M 144,1032 l 24,0 0,24 -24,0 z M 192,1032 l 24,0 0,24 -24,0 z M 240,1032 l 24,0 0,24 -24,0 z M 264,1032 l 24,0 0,24 -24,0 z M 312,1032 l 24,0 0,24 -24,0 z M 360,1032 l 24,0 0,24 -24,0 z M 384,1032 l 24,0 0,24 -24,0 z M 408,1032 l 24,0 0,24 -24,0 z M 480,1032 l 24,0 0,24 -24,0 z M 528,1032 l 24,0 0,24 -24,0 z M 624,1032 l 24,0 0,24 -24,0 z M 792,1032 l 24,0 0,24 -24,0 z M 1008,1032 l 24,0 0,24 -24,0 z M 1032,1032 l 24,0 0,24 -24,0 z M 1056,1032 l 24,0 0,24 -24,0 z M 1080,1032 l 24,0 0,24 -24,0 z M 1104,1032 l 24,0 0,24 -24,0 z M 48,1056 l 24,0 0,24 -24,0 z M 96,1056 l 24,0 0,24 -24,0 z M 120,1056 l 24,0 0,24 -24,0 z M 144,1056 l 24,0 0,24 -24,0 z M 192,1056 l 24,0 0,24 -24,0 z M 240,1056 l 24,0 0,24 -24,0 z M 264,1056 l 24,0 0,24 -24,0 z M 288,1056 l 24,0 0,24 -24,0 z M 360,1056 l 24,0 0,24 -24,0 z M 384,1056 l 24,0 0,24 -24,0 z M 408,1056 l 24,0 0,24 -24,0 z M 552,1056 l 24,0 0,24 -24,0 z M 576,1056 l 24,0 0,24 -24,0 z M 648,1056 l 24,0 0,24 -24,0 z M 720,1056 l 24,0 0,24 -24,0 z M 744,1056 l 24,0 0,24 -24,0 z M 792,1056 l 24,0 0,24 -24,0 z M 840,1056 l 24,0 0,24 -24,0 z M 864,1056 l 24,0 0,24 -24,0 z M 888,1056 l 24,0 0,24 -24,0 z M 912,1056 l 24,0 0,24 -24,0 z M 936,1056 l 24,0 0,24 -24,0 z M 960,1056 l 24,0 0,24 -24,0 z M 984,1056 l 24,0 0,24 -24,0 z M 1032,1056 l 24,0 0,24 -24,0 z M 1056,1056 l 24,0 0,24 -24,0 z M 48,1080 l 24,0 0,24 -24,0 z M 192,1080 l 24,0 0,24 -24,0 z M 264,1080 l 24,0 0,24 -24,0 z M 288,1080 l 24,0 0,24 -24,0 z M 432,1080 l 24,0 0,24 -24,0 z M 480,1080 l 24,0 0,24 -24,0 z M 600,1080 l 24,0 0,24 -24,0 z M 672,1080 l 24,0 0,24 -24,0 z M 720,1080 l 24,0 0,24 -24,0 z M 816,1080 l 24,0 0,24 -24,0 z M 888,1080 l 24,0 0,24 -24,0 z M 912,1080 l 24,0 0,24 -24,0 z M 984,1080 l 24,0 0,24 -24,0 z M 1008,1080 l 24,0 0,24 -24,0 z M 1056,1080 l 24,0 0,24 -24,0 z M 48,1104 l 24,0 0,24 -24,0 z M 72,1104 l 24,0 0,24 -24,0 z M 96,1104 l 24,0 0,24 -24,0 z M 120,1104 l 24,0 0,24 -24,0 z M 144,1104 l 24,0 0,24 -24,0 z M 168,1104 l 24,0 0,24 -24,0 z M 192,1104 l 24,0 0,24 -24,0 z M 264,1104 l 24,0 0,24 -24,0 z M 312,1104 l 24,0 0,24 -24,0 z M 384,1104 l 24,0 0,24 -24,0 z M 408,1104 l 24,0 0,24 -24,0 z M 432,1104 l 24,0 0,24 -24,0 z M 528,1104 l 24,0 0,24 -24,0 z M 552,1104 l 24,0 0,24 -24,0 z M 576,1104 l 24,0 0,24 -24,0 z M 648,1104 l 24,0 0,24 -24,0 z M 672,1104 l 24,0 0,24 -24,0 z M 696,1104 l 24,0 0,24 -24,0 z M 720,1104 l 24,0 0,24 -24,0 z M 744,1104 l 24,0 0,24 -24,0 z M 768,1104 l 24,0 0,24 -24,0 z M 840,1104 l 24,0 0,24 -24,0 z M 888,1104 l 24,0 0,24 -24,0 z M 936,1104 l 24,0 0,24 -24,0 z M 960,1104 l 24,0 0,24 -24,0 z M 984,1104 l 24,0 0,24 -24,0 z M 1080,1104 l 24,0 0,24 -24,0 z " />
	</g>
    
      <!-- Footer Text Group -->
      <g id="footer-text">
        <text x="588" y="1215" font-family="'Satisfy', cursive" font-size="80" fill="#000000" text-anchor="middle">Vota Trixie Vega</text>
        <text x="588" y="1285" font-family="'Satisfy', cursive" font-size="44" fill="#000000" text-anchor="middle">Por qué cada socio importa</text>
      </g>
    
</svg>
